<?xml version="1.0" standalone="no"?>
<!DOCTYPE svg PUBLIC "-//W3C//DTD SVG 1.1//EN" "http://www.w3.org/Graphics/SVG/1.1/DTD/svg11.dtd" >
<svg xmlns="http://www.w3.org/2000/svg" xmlns:xlink="http://www.w3.org/1999/xlink" version="1.1">
<metadata>
Created by FontForge 20170924 at Mon Jan 27 12:58:34 2020
 By root
</metadata>
<defs>
<font id="SloppyAnnabelle-Regular" horiz-adv-x="345" >
  <font-face 
    font-family="Sloppy Annabelle"
    font-weight="400"
    font-stretch="normal"
    units-per-em="1000"
    panose-1="2 0 5 3 0 0 0 0 0 0"
    ascent="800"
    descent="-200"
    x-height="289.5"
    cap-height="531"
    bbox="49.4375 -21 372 624"
    underline-thickness="50"
    underline-position="-150"
    unicode-range="U+0020-00A0"
  />
    <missing-glyph />
    <glyph glyph-name="space" unicode=" " horiz-adv-x="250" 
 />
    <glyph glyph-name="exclam" unicode="!" horiz-adv-x="158" 
d="M81 237q9 9 22 -13q7 -13 -2 -23q-8 -8 -13 -8q-10 0 -10 22q0 19 3 22zM52 519q1 12 3 15t9 2q4 0 6 -1.5t3.5 -6t2 -11.5t1.5 -22q2 -50 8 -90q7 -48 7 -69q0 -17 -7 -20q-9 -2 -13 2q-6 6 -13 73.5t-7 114.5v13z" />
    <glyph glyph-name="quotedbl" unicode="&#x22;" horiz-adv-x="168" 
d="M66 353q-14 17 -14 46q0 13 4 13q6 0 16 -31q7 -21 7 -29q0 -6 -4 -6q-3 0 -9 7zM87 410q0 9 3 9q6 0 16 -17.5t10 -28.5q0 -6 -4 -6h-3q-5 2 -13.5 18.5t-8.5 24.5z" />
    <glyph glyph-name="numbersign" unicode="#" horiz-adv-x="314" 
d="M181 279q0 6 -2 7.5t-12 0.5q-27 -1 -34.5 -3t-7.5 -8q0 -13 10 -13q8 0 13 1q24 5 28.5 6.5t4.5 8.5zM107 349q1 15 5 15q5 0 8 -36l3 -33l11 1q31 1 37.5 2t6.5 5q0 1 -6 27t-6 31q0 3 1 3q11 0 24 -53l3 -14h25q25 0 23 -3q-2 -4 -16 -4q-29 0 -29 -10q0 -6 31 -7
l30 -1l-19 -4q-25 -5 -37 -8l4 -23q4 -20 4 -37q0 -12 -3 -12q-2 0 -9 22t-9 37l-2 11l-21 -2q-38 -4 -38 -11q0 -1 2 -9t3 -15q2 -16 -3 -16q-8 0 -14 31q-1 9 -3.5 11t-10.5 3q-6 0 -8.5 2t0 4t8.5 2q8 0 9 2t-2 13q-1 7 -13 7h-16h-9q-15 0 -15 2t27 6l26 4l-2 20
q0 3 -0.5 9t-0.5 10t0.5 10t0.5 8z" />
    <glyph glyph-name="ampersand" unicode="&#x26;" horiz-adv-x="237" 
d="M121 220q0 3 -14 23.5t-16 20.5q-1 0 -12 -16.5t-13 -21.5q-2 -4 -2 -11q0 -11 16 -11q9 0 25 5.5t16 10.5zM119 320q0 2 -2.5 2.5t-6 -0.5t-7.5 -4q-7 -4 -7 -16l1 -10l11 13q11 13 11 15zM107 333q9 3 14 3q11 0 11 -9q0 -11 -15 -30q-13 -19 -13 -25q0 -8 17 -27
l14 -16l25 21q7 6 13 10.5t9 7t3 1.5q0 -8 -24 -34l-16 -17l16 -10l6 -3t6 -3.5t5 -3t3 -3v-3.5q-1 -3 -5 -3q-6 0 -26 13l-14 9l-21 -10q-24 -11 -36 -11q-13 0 -21 9q-8 10 -8 15q0 17 24 47q11 13 11 34q0 32 22 38z" />
    <glyph glyph-name="quotesingle" unicode="'" horiz-adv-x="132" 
d="M53 417q1 5 3.5 7t5.5 1t5 -5q1 -2 4.5 -29.5t6.5 -28.5q4 -3 0 -7q-3 -3 -5 -3q-8 0 -15 16.5t-7 34.5q0 6 2 14z" />
    <glyph glyph-name="parenleft" unicode="(" horiz-adv-x="202" 
d="M92 412q14 10 18 10q2 0 2 -1q0 -3 -14 -17q-26 -23 -29 -67v-6q0 -37 20.5 -77.5t45.5 -51.5q11 -5 12 -7t-4 -2l-9 2q-30 7 -46.5 25t-28.5 58q-7 22 -7 46q0 60 40 88z" />
    <glyph glyph-name="parenright" unicode=")" horiz-adv-x="205" 
d="M107 405q-10 10 -10 13q0 1 2 1t14 -7q40 -25 40 -87q0 -43 -21 -85q-10 -19 -32 -34t-42 -15q-6 0 -1 3l10 5q28 14 49 56q20 39 20 78q0 44 -29 72z" />
    <glyph glyph-name="asterisk" unicode="*" horiz-adv-x="206" 
d="M95 418q0 8 4 9l2 -4q3 -16 17 -5q10 6 10 1t-4.5 -10t-4.5 -6q0 -4 16 -5q16 -2 18 -6q1 -3 -1 -4t-15 -4q-5 -1 -6 -1.5t-1 -2t3 -4.5q5 -5 5 -9t-6.5 -4.5t-13.5 3.5q-6 4 -6 -3q0 -9 -7 -9q-9 0 -11 13q-2 7 -6.5 5.5t-9 -1t-3.5 6.5q1 7 -10 10q-13 3 -12 8
q1 3 11 3q9 0 10 1q0 1 -2 5q-3 6 -3 10t6.5 3.5t8.5 -3.5q2 -4 6.5 -3t4.5 6z" />
    <glyph glyph-name="comma" unicode="," horiz-adv-x="137" 
d="M70 202q3 6 5 9t4 4.5t3 1t3 -2.5q1 -2 1 -6q0 -11 -10 -24t-19 -13q-7 0 -7.5 4t5.5 7q8 4 15 20z" />
    <glyph glyph-name="hyphen" unicode="-" horiz-adv-x="173" 
d="M51 282q-1 4 3 4.5t24 0.5q43 0 43 -8q0 -1 -1 -2q-6 -6 -28 -6q-39 0 -41 11z" />
    <glyph glyph-name="period" unicode="." horiz-adv-x="127" 
d="M56 211q4 4 8.5 5t8 -1t3.5 -7q1 -7 -4.5 -12t-13.5 -5q-7 0 -7.5 6.5t5.5 13.5z" />
    <glyph glyph-name="colon" unicode=":" horiz-adv-x="129" 
d="M54 205q5 6 12 5t9 -7q1 -6 -3 -10.5t-12 -4.5t-10 5.5t4 11.5zM63 302q-7 4 -7 12q0 16 11 16q4 0 8 -4t4 -10q0 -15 -11 -15q-3 0 -5 1z" />
    <glyph glyph-name="semicolon" unicode=";" horiz-adv-x="133" 
d="M71 245q7 6 10 -10q1 -4 1 -9v-5q0 -30 -22 -30q-9 0 -9.5 0.5t4.5 5.5q14 11 14 35q0 11 2 13zM58 358q5 5 10 5q10 0 10 -16q0 -14 -10 -14q-15 0 -15 13q0 7 5 12z" />
    <glyph glyph-name="question" unicode="?" horiz-adv-x="208" 
d="M126 192q-12 2 -12 15q0 14 14 14q8 0 10 -12q2 -10 -1 -14.5t-11 -2.5zM80 369q5 2 15 2q19 0 37 -11t24 -24q1 -2 1 -6q0 -12 -17 -28q-9 -9 -10 -13t6 -10q6 -5 6 -11q0 -7 -9 -7q-8 0 -15 6q-10 9 -10 18q0 12 18 33l14 15l-13 10q-16 13 -34 13q-6 0 -9 -1
q-7 -2 -14 -17q-8 -15 -13 -15q-4 0 -4 7q0 1 0.5 3t0.5 3q5 25 26 33z" />
    <glyph glyph-name="at" unicode="@" horiz-adv-x="295" 
d="M167 329q0 4 -7 4q-12 0 -23 -9q-6 -4 -6 -13q0 -17 12 -17q1 0 2 0.5t2 0.5q5 2 12.5 14.5t7.5 19.5zM135 373q20 6 38 6q29 0 49 -12.5t20 -32.5q0 -3 -2 -11q-9 -25 -33 -25q-10 0 -18 4q-11 5 -14 -1q-6 -9 -12 -15q-9 -9 -23 -8q-28 2 -28 30q0 15 11 26t31 11
q14 0 18.5 -2t12.5 -12q12 -15 22 -15q16 0 16 15q0 11 -11 20q-13 8 -35 8q-21 0 -37 -6q-17 -7 -32.5 -20.5t-22.5 -26.5q-7 -16 -7 -30q0 -16 8 -29q21 -31 67 -31q30 0 62 13q19 9 21 7q1 -1 -5 -5.5t-14 -9.5q-41 -27 -76 -27q-20 0 -44 11q-35 18 -43 56q-2 14 -2 17
q0 9 4 20q7 25 29 45.5t50 29.5z" />
    <glyph glyph-name="A" unicode="A" horiz-adv-x="330" 
d="M172 458q-32 99 -39 106q-1 1 -3 1q-5 0 -13 -32q-4 -17 -15 -100t-11 -95q0 -1 1 -1q9 0 60.5 8t51.5 10q0 7 -32 103zM121 570q4 7 10 7q7 0 15 -12q13 -22 69 -189l5 -15l19 1h7q9 0 9 -2t-7.5 -5t-15.5 -5l-8 -2q11 -32 25 -70q27 -77 27 -88q0 -5 -3 -5
q-8 0 -13.5 8.5t-5.5 13.5q0 7 -11 41t-22.5 64.5t-12.5 30.5q-5 0 -47 -7q-36 -6 -57 -6q-12 0 -15 -9t-8 -58q-7 -60 -12 -60l-1 1q-2 2 3 33q7 59 7 60l2 29h-14q-4 0 -7 0.5t-4.5 1.5t-0.5 2q2 3 13 3q13 0 14 3q2 4 13 93q16 124 27 141z" />
    <glyph glyph-name="B" unicode="B" horiz-adv-x="378" 
d="M99 564q12 12 19 12q1 0 4 -0.5t5 -0.5q30 -3 50.5 -31t20.5 -67q0 -2 -0.5 -6.5t-0.5 -6.5q-2 -34 -3 -39l-1 -12l21 -4q43 -8 73 -28.5t37 -46.5q2 -6 2 -21q0 -27 -9 -44q-15 -30 -54.5 -54.5t-71.5 -24.5q-7 0 -10 1q-26 4 -26 16q0 4 1 5l1 -3q3 -9 19 -9
q20 0 50.5 12.5t51.5 30.5q34 30 34 68q0 23 -9 37q-24 35 -99 50q-15 3 -20 6t-5 12q0 7 1 12q3 14 3 49q0 31 -10 49q-19 33 -44 36q-12 2 -22 -6q-15 -14 -15 -56q0 -37 33 -167q23 -92 23 -99q0 -13 -10 -9q-6 3 -10 11q-14 29 -38.5 139t-31.5 178q-1 6 -1 12l1 3
l20 -77l1 12q0 41 20 61z" />
    <glyph glyph-name="C" unicode="C" horiz-adv-x="343" 
d="M174 531q20 6 36 6q43 0 43 -30q0 -7 -3 -1q-1 1 -2 4q-3 10 -11 14q-6 3 -17 3q-42 0 -77 -23q-16 -11 -34.5 -32t-26.5 -36q-13 -27 -13 -63q0 -79 52 -134q36 -39 73 -39q12 0 33 7q35 14 52 44q7 13 10 13q1 0 -0.5 -4.5t-6.5 -15.5q-13 -27 -37 -42.5t-53 -15.5
q-40 0 -78 38q-59 59 -59 149q0 71 53 120q27 25 66 38z" />
    <glyph glyph-name="D" unicode="D" horiz-adv-x="340" 
d="M113 339l2 -3q2 3 0 5q-1 1 -1.5 0t-0.5 -2zM133 554q7 3 18 3q20 0 36 -8q48 -22 75 -76t27 -127q0 -11 -2 -35q-11 -124 -76 -124q-9 0 -20 3q-10 3 -21 12.5t-11 14.5q0 4 9 -5q16 -14 35 -14q15 0 31 11q18 14 29 51.5t11 82.5q0 51 -13 91q-15 46 -46 77.5t-63 31.5
q-15 0 -22 -6t-12 -23t-5 -39q0 -44 18 -144q15 -88 15 -97t-5 -12t-10 2q-9 9 -38 132t-35 176q-1 6 -1 14q0 4 1 4q4 0 27 -99q25 -106 28 -106q1 0 0 6t-2.5 19t-4.5 30q-6 38 -6 67q0 74 33 87z" />
    <glyph glyph-name="E" unicode="E" 
d="M148 360q0 4 -11 4q-13 0 -14 -4q0 -3 12 -3q13 0 13 3zM134 493q14 5 50 5q43 0 58 -7q9 -4 11 -6l-3 -1q-3 0 -10 2q-12 3 -38 3q-36 0 -56 -5q-65 -19 -65 -67q0 -20 9 -35t10 -15q3 0 13 5q12 5 27 5t20 -8q9 -13 -6 -21q-12 -6 -19 -6t-17 3l-17 5l-10 -11
q-22 -22 -22 -50q0 -11 5 -24q15 -37 75 -51q23 -5 51 -5q58 0 79 13q11 7 11 3.5t-10 -11.5q-25 -20 -82 -20q-79 0 -118 37q-26 26 -26 57t25 59q10 10 10 12l-8 12q-13 17 -13 44q0 11 1 17q9 42 65 61z" />
    <glyph glyph-name="F" unicode="F" horiz-adv-x="354" 
d="M87 571q2 6 6 1q3 -4 12 -4q8 0 37 3q40 5 87 5q40 0 45 -5q4 -4 2 -11q-2 -5 -3 0q-2 5 -7 7h-6q-30 0 -95 -4.5t-65 -8.5q0 -14 18.5 -83.5t25.5 -81.5q10 -17 34 -17q5 0 23 2q36 4 63 12q28 7 33 7h1q4 -4 -44 -20q-4 -2 -8 -3q-26 -8 -58 -8q-17 0 -26 3
q-13 4 -13 3q0 -4 26 -84q27 -78 27 -91q0 -6 -4 -6q-10 0 -39 94q-57 184 -67 259l-2 17l-18 -1h-8q-7 0 -7 1q0 2 15 5q14 3 15 9z" />
    <glyph glyph-name="G" unicode="G" horiz-adv-x="405" 
d="M163 512q9 3 22 3q23 0 34 -6q10 -5 18 -16t8 -19q0 -7 -3.5 -16t-6.5 -9q-1 0 -1 1.5t0.5 4t1.5 4.5q3 11 -1 20q-11 24 -42 24q-20 0 -41 -10q-72 -35 -83 -125q0 -2 -0.5 -6t-0.5 -6q0 -40 21.5 -84.5t47.5 -57.5q9 -5 29 -5q18 0 27 4q25 11 40 31.5t15 43.5
q0 16 -3 16q-11 0 -64 -15q-4 0 -4 1t15.5 7t31.5 11l16 6q1 1 1 2q0 2 -3.5 9t-3.5 8q2 0 11 -8l9 -8l45 12q42 11 48 11h1q3 -2 -42 -16l-46 -14l1 -21v-5q0 -34 -25.5 -60.5t-62.5 -30.5q-1 0 -5 -0.5t-5 -0.5q-30 0 -58 29q-51 54 -51 131q0 45 19 83q11 24 37.5 46.5
t52.5 30.5z" />
    <glyph glyph-name="H" unicode="H" horiz-adv-x="362" 
d="M197 514q2 11 4 11l5 -19q4 -31 12.5 -66t12.5 -35q1 0 1 -10q0 -23 42 -140q20 -55 26 -55h2q5 2 5 -1q0 -4 -5.5 -5.5t-9.5 0.5q-8 3 -30.5 57t-37.5 107q-7 26 -9 28q-2 1 -5 1q-12 0 -27 -4q-44 -8 -55 -9q-26 -2 -26 -5l17 -70q19 -79 19 -95q0 -6 -2 -6
q-7 0 -34 110q-45 186 -45 198q0 1 1 1q3 0 24 -71l16 -55q108 13 110 15q3 2 3 6q0 8 -4 24q-11 50 -11 79q0 2 0.5 5t0.5 4z" />
    <glyph glyph-name="I" unicode="I" 
d="M129 520q44 11 53 11t9 -5q0 -7 -54 -18q-16 -7 -17 -10q0 -6 15 -48q19 -54 52 -203q4 -21 7 -27t13 -6q5 0 32 5q16 3 40 7q9 2 10 1q0 -1 -2 -4q-9 -10 -60 -19q-22 -4 -26 -5q-9 -3 -35 -3q-22 0 -26 3q-6 4 3 6q4 0 12 1q24 2 24 6q0 14 -36 166q-30 123 -34 123
q-1 0 -21 -4.5t-25 -4.5h-2q-3 0 -3 2q0 8 71 26z" />
    <glyph glyph-name="J" unicode="J" horiz-adv-x="269" 
d="M147 536q0 2 3 2q6 0 26 -56.5t33 -108.5q9 -36 9 -76q0 -31 -1.5 -38.5t-8.5 -19.5q-28 -44 -102 -44q-44 0 -51 13q-5 11 9 21q8 5 9.5 4t-5.5 -7q-7 -5 -7 -10q0 -8 37 -8q33 0 59 8q38 13 46 53q2 12 2 20q0 57 -43 197q-3 11 -7 24t-6 20z" />
    <glyph glyph-name="K" unicode="K" horiz-adv-x="327" 
d="M145 538q3 45 5 45q4 0 4 -56q0 -76 -22 -123q-7 -16 -5 -18t14 2q8 2 11 2q21 0 43 -19t37 -50q22 -45 31 -103q2 -14 5 -14q5 1 5.5 -1t-3.5 -9q-5 -10 -8 -10q-6 0 -21 63q-25 101 -70 124q-10 5 -23 5q-28 0 -47 -17l-11 -9l12 -69q11 -64 11 -75t-6 -11t-8 12
q-17 87 -34 210q-9 76 -9 131q0 15 1 18q2 9 4 -3q0 -3 1 -8q22 -177 26 -182q1 -1 2 -1q10 0 28 34q24 48 27 132z" />
    <glyph glyph-name="L" unicode="L" horiz-adv-x="359" 
d="M54 543q1 5 2.5 8t3.5 2.5t4 -3.5q1 -3 5 -91q7 -189 29 -232q9 -17 21 -17q11 0 45 17q25 13 49 21.5t37 12t49 10.5q1 0 3 1h1l1 -1q0 -5 -50 -22q-43 -14 -96 -42q-24 -12 -38 -12q-12 0 -20 7q-20 17 -30 69.5t-14 166.5q-2 76 -2 92v13z" />
    <glyph glyph-name="M" unicode="M" horiz-adv-x="427" 
d="M286 452l-6 -14q-6 -14 -15.5 -33.5t-21 -39.5t-26.5 -34t-28 -14q-22 0 -40 25t-39 86q-14 40 -16 40q-1 -1 -1 -3q0 -5 1 -9q10 -89 25 -178q13 -74 13 -82q0 -7 -6 -7q-7 0 -12.5 12t-18.5 54q-39 126 -39 206q0 44 14 53q2 2 2 -1q0 -1 -1 -6q-3 -9 -3 -32
q0 -41 6 -72q19 -99 25 -99v1q1 4 -6 53q-10 68 -15 136q-2 21 0 23q4 2 5 2q7 0 13.5 -14.5t13 -36t9.5 -27.5q7 -11 10 -23q11 -36 29 -62t31 -26q9 0 23 16q30 31 60 114q6 19 15 19q2 0 6 -4q4 -3 28 -92q46 -175 51 -189v-5l-3 2q-17 14 -65 196q-17 65 -18 65z" />
    <glyph glyph-name="N" unicode="N" horiz-adv-x="323" 
d="M218 506q2 2 4.5 1t4 -4.5t1.5 -7.5q0 -11 12 -42q32 -91 32 -166q0 -19 -3 -29q-8 -25 -31 -25q-24 0 -61 39t-77 106q-19 32 -21 32t-2 -4q-2 -8 2 -21q9 -34 9 -145q0 -43 -3 -46q-1 -1 -2 -1q-4 0 -7 79q-3 100 -13 143q-9 38 -9 59q0 4 3 4q7 0 25 -37
q28 -58 68 -112.5t69 -73.5q9 -6 17 -6q12 0 16 9q5 10 5 31q0 64 -30 159q-11 34 -11 50q0 6 2 8z" />
    <glyph glyph-name="O" unicode="O" horiz-adv-x="336" 
d="M82 554q3 3 24 3h13q33 -1 57 -14q60 -30 94 -125q15 -43 15 -95q0 -67 -24 -103q-24 -34 -62 -34q-41 0 -81 34.5t-56 83.5q-7 21 -7 57q0 35 8 69q11 44 32 76.5t37 32.5q15 0 2 -9l-5 -3q-19 -10 -37 -57t-20 -93v-16q0 -71 48 -119q38 -38 81 -38q18 0 29 7
q18 10 28 43t10 74q0 36 -7 65q-5 22 -22.5 56.5t-31.5 50.5q-18 18 -37 30q-39 23 -75 23h-6l-10 -1q1 1 3 2z" />
    <glyph glyph-name="P" unicode="P" horiz-adv-x="283" 
d="M76 546q6 3 15 3q28 0 69 -26.5t57 -56.5q12 -24 12 -38q0 -4 -2 -16q-5 -27 -25.5 -59.5t-31.5 -32.5q-12 0 4 15q14 13 27.5 43t13.5 49q0 25 -22.5 51t-58.5 44q-30 15 -42 15q-6 0 -13 -5q-11 -8 -11 -36q0 -41 21 -98q6 -18 8 -18q1 0 0 4.5t-2.5 14.5t-4.5 23
q-12 49 -13 59q-1 4 -1 9q0 3 1 3q4 0 15 -39q39 -149 70 -218q10 -21 10 -32q0 -6 -5 -6h-2q-6 2 -20 37q-17 43 -29 68q-59 124 -59 190q0 41 19 53z" />
    <glyph glyph-name="Q" unicode="Q" horiz-adv-x="371" 
d="M145 431q-14 20 -31 39l-11 13q-34 -44 -34 -123q0 -80 35 -125q24 -32 52 -32q12 0 21 6q8 4 15.5 18t7.5 22v1l-1 2q-1 1 -4.5 5t-11 12.5t-12.5 14.5q-26 31 -26 36q0 2 3 2l26 -24q26 -23 28 -23q1 0 1 7q0 29 -11 62q-15 44 -47 87zM110 502q7 5 20 5q10 0 11 -4
q1 -2 -1.5 -2.5t-6.5 0.5q-7 1 -26 -12l16 -15q42 -38 68.5 -91.5t26.5 -103.5v-24l22 -18q33 -27 49 -27q1 0 2.5 0.5t2.5 0.5q2 1 8.5 2t8.5 2q6 2 3 -1l-7 -4q-11 -7 -23 -7q-27 0 -55 24q-18 15 -18 5q0 -5 -10 -18.5t-17 -17.5q-16 -8 -29 -8q-27 0 -51 24t-37 65
q-13 39 -13 81q0 65 30 116q9 17 8 23q-1 4 0 4t3 -2q4 -4 15 3z" />
    <glyph glyph-name="R" unicode="R" horiz-adv-x="367" 
d="M132 538q-9 5 -20 5q-23 0 -31 -28q-3 -12 -3 -27q0 -21 7 -69q11 -67 16 -67q2 0 4 1q17 5 37 37t25 63q2 14 2 20q0 47 -37 65zM56 557q4 6 7 -6q1 -4 2 -12q2 -14 3 -14t3 3q16 28 41 28q16 0 35 -12q36 -23 36 -72q0 -40 -23 -81q-12 -22 -9 -23l3 1q25 7 45 7
q8 0 18 -2q33 -10 50 -35q20 -29 38 -83q8 -26 8 -54q0 -14 -3 -14q-4 0 -4 3q0 18 -19 72q-35 90 -73 97q-4 1 -13 1q-26 0 -58 -12q-20 -7 -34 -10l-10 -2l3 -21q5 -53 6 -69q3 -30 3 -40t-5 -15q-6 -6 -10 0t-24 168q-17 143 -17 189q0 2 1 8z" />
    <glyph glyph-name="S" unicode="S" horiz-adv-x="312" 
d="M142 551q13 4 27 4q17 0 27 -5q28 -13 28 -31q0 -8 -8 4q-14 21 -44 21q-36 0 -68.5 -30t-32.5 -64q0 -30 31 -46q17 -8 68 -10q48 -2 60.5 -7t21.5 -24q8 -16 8 -42q0 -31 -12.5 -62t-32.5 -47q-19 -16 -54 -16q-59 0 -86 35q-11 13 -11 26q0 7 4 9t1 -6q-3 -9 10 -20
q26 -25 74 -28h11q28 0 46 17q15 15 25 42.5t10 53.5q0 21 -7 34q-6 11 -16 14.5t-49 4.5q-45 2 -65 7.5t-34 20.5q-18 18 -18 42v9q4 31 28 57t58 37z" />
    <glyph glyph-name="T" unicode="T" horiz-adv-x="343" 
d="M276 562q5 5 9 -1q3 -5 -2 -10q-6 -6 -50 -9q-32 -3 -37.5 -4.5t-5.5 -6.5q0 -39 19 -186q5 -33 16.5 -82t15.5 -49q3 0 3 -2t-5 -12q-4 -9 -8 -9q-7 0 -9 17q-1 4 -10 44q-24 94 -33 243q-2 32 -5 39q-1 2 -11 2q-17 0 -33 -2q-39 -3 -58 -3q-14 0 -14 2q1 0 2 1
q22 8 177 23q38 4 39 5z" />
    <glyph glyph-name="U" unicode="U" horiz-adv-x="378" 
d="M58 497q5 5 7 -6q1 -6 1 -18q0 -66 19 -136q14 -57 42.5 -93.5t59.5 -36.5q29 0 42 29.5t13 95.5q0 55 -12 134q-2 16 1 18q5 3 10 -3t6 -18q5 -35 36.5 -137t37.5 -102q5 0 2 -8q-2 -6 -7 -5.5t-10 7.5q-2 3 -26 68l-20 60l-4 -44q-4 -52 -16.5 -76.5t-37.5 -31.5
q-10 -2 -15 -2q-54 0 -92 74q-39 72 -39 185q0 44 2 46z" />
    <glyph glyph-name="V" unicode="V" horiz-adv-x="304" 
d="M57 592l1 32l2 -24q13 -99 22 -143q12 -65 45 -155t49 -100h1q6 0 15 36q6 22 26 198q19 159 26 166q2 2 4 -1q1 -1 1 -8q0 -17 -7 -69q-7 -43 -18 -151q-13 -114 -21 -148.5t-23 -36.5q-8 -2 -16 7q-19 18 -51 105t-43 153q-13 75 -13 139z" />
    <glyph glyph-name="W" unicode="W" horiz-adv-x="363" 
d="M274 533q-3 18 -3 30t3 12q5 0 12 -37q27 -128 27 -224q0 -49 -3.5 -68.5t-13.5 -27.5q-9 -7 -15 -7q-9 0 -30 22q-36 37 -67 114q-12 28 -15 28t-3 -15q0 -24 -15 -114q-2 -13 -6 -22q-13 -32 -30 -32q-15 0 -28.5 26.5t-21.5 73.5q-11 60 -11 144v21q1 20 3.5 41.5
t5 35t3.5 13.5q2 0 2 -92q0 -130 20 -202q12 -44 27 -47h1q26 0 39 143q4 55 11 55q6 0 10.5 -7t17.5 -37q23 -54 47.5 -92t37.5 -39h2q10 0 13 17t3 72q0 51 -2.5 75t-20.5 140z" />
    <glyph glyph-name="X" unicode="X" horiz-adv-x="347" 
d="M56 576q0 3 1 3q5 0 47 -70q42 -72 43 -72t28 40q49 71 59 71q1 0 1 -1q0 -3 -25 -39q-51 -75 -51 -86q0 -8 55.5 -98t66.5 -100l7 -6v14l1 15l3 -12q6 -26 -7 -26q-20 0 -97 129q-7 12 -15.5 26.5t-13.5 22.5t-6 10l-5 9l-7 -14q-16 -30 -53 -127q-28 -76 -33 -76
q-1 0 -1 3l10 38q21 76 55 148l21 42l-25 45q-59 103 -59 111z" />
    <glyph glyph-name="Y" unicode="Y" horiz-adv-x="303" 
d="M58 572q-1 4 -0.5 5t2.5 0q5 -3 14 -22q22 -46 53 -97t36 -51h1q4 4 16 35q6 16 33.5 68.5t31.5 52.5q2 0 2 -2q0 -8 -28 -67q-25 -52 -25 -55q0 -1 -8 -19t-8 -32q0 -15 -4 -15t-5 -1q-9 -9 -33 -126q-11 -50 -13 -57q-1 -3 -3.5 -4.5t-5 0t-2.5 4.5q0 11 11.5 64
t21.5 89l13 45l-14 20q-26 36 -51 84t-35 81z" />
    <glyph glyph-name="Z" unicode="Z" horiz-adv-x="374" 
d="M97 519q0 3 26 3h24q104 -2 121.5 -4.5t23.5 -16.5q4 -9 -5 -26q-12 -21 -64 -96q-35 -51 -52 -71.5t-49 -52.5q-44 -42 -44 -48h2q4 0 36 4q37 5 65 5q12 0 78 -4q53 -5 56 -8q9 -8 -6 -10h-14q-19 2 -79 4q-21 1 -49 1q-30 0 -55 -4q-35 -5 -43 -5q-15 0 -15 10
q0 8 48 55q49 49 79 92q7 10 23 31.5t26.5 36.5t22.5 33.5t18.5 31t6.5 18.5q0 4 -3 5l-86 4q-92 3 -92 12z" />
    <glyph glyph-name="bracketleft" unicode="[" horiz-adv-x="219" 
d="M53 543q52 15 74 15q10 0 10 -4q0 -6 -53 -18q-20 -5 -20 -7q5 -148 8 -161q4 -20 8.5 -71.5t4.5 -70.5q0 -26 15 -26q3 0 15 2q13 3 30 3q13 0 17 6q3 4 3 1l-1 -7q-1 -8 -4 -10t-20 -5q-20 -4 -39 -4q-13 0 -19 3q-13 7 -13 50q0 19 -4.5 67.5t-8.5 66.5q-5 27 -5 123
q0 45 2 47z" />
    <glyph glyph-name="backslash" unicode="\" horiz-adv-x="269" 
d="M58 560q0 12 8 0q2 -3 2 -4q0 -2 15 -34q1 -2 31 -71q61 -141 70 -175q12 -47 27 -74q9 -19 0 -20q-3 0 -6 2q-6 4 -17.5 31t-18.5 56q-8 35 -23 67q-43 95 -83 202q-5 15 -5 20z" />
    <glyph glyph-name="bracketright" unicode="]" horiz-adv-x="235" 
d="M56 555q0 1 1 1.5t4 -0.5l7.5 -2.5t12.5 -4.5q15 -5 49 -5q36 0 37 -5q1 -3 3 -59q2 -113 12 -167q4 -24 4 -42q0 -78 -34 -78h-3q-60 7 -70 9.5t-10 7.5q0 6 8 6q2 0 5.5 -0.5t9 -1t10.5 -0.5q8 -1 18.5 -2t16 -1.5t9.5 -0.5q14 0 18 12q4 9 4 51q0 34 -3 47
q-11 46 -11 167v43h-30q-24 0 -42 5q-26 10 -26 20z" />
    <glyph glyph-name="underscore" unicode="_" horiz-adv-x="216" 
d="M50 194q0 4 19.5 5.5t40.5 2.5t23 3t10 2q22 0 22 -6q0 -13 -70 -13h-9q-36 1 -36 6z" />
    <glyph glyph-name="a" unicode="a" horiz-adv-x="261" 
d="M73 292q9 6 26 6q6 0 14 -2q13 -5 -8 -8l-4 -1q-32 -3 -35 -37q0 -3 -0.5 -7.5t-0.5 -6.5q0 -19 11 -26q8 -6 18 0q24 12 24 51q0 19 6 19t38 -33q32 -35 39 -35q9 0 2 -4q-4 -2 -9 -2q-10 0 -34 23q-23 23 -26 23q-2 0 -4 -11q-4 -16 -16.5 -32t-27.5 -16q-11 0 -20 8
q-16 13 -16 41q0 36 23 50z" />
    <glyph glyph-name="b" unicode="b" horiz-adv-x="220" 
d="M143 298q-9 9 -17 9q-11 0 -19 -13.5t-8 -34.5q0 -8 1 -13q2 -13 -0.5 -17.5t-9.5 -2.5t-7 -6q0 -15 16 -15q23 0 42 25q9 12 9 36q0 25 -7 32zM55 385q4 14 7 0q1 -5 2 -12q1 -15 10.5 -49t11.5 -34t8 11q12 22 32 22q8 0 19 -7t15 -16q8 -13 8 -32q0 -29 -20 -52.5
t-42 -23.5q-7 0 -13 3q-15 5 -15 18q0 2 2 12q2 8 2 11q0 8 -10 45q-18 67 -18 96q0 2 0.5 4.5t0.5 3.5z" />
    <glyph glyph-name="c" unicode="c" horiz-adv-x="236" 
d="M72 296q6 5 20 5t19 -5q11 -10 -1 -10q-4 0 -9 1q-11 2 -14.5 0.5t-9.5 -8.5q-12 -15 -12 -33q0 -20 14 -32q12 -9 28 -9q30 0 61 25q9 8 13 8q0 -4 -16 -19q-32 -30 -63 -30q-29 0 -45 26q-7 11 -7 28q0 37 22 53z" />
    <glyph glyph-name="d" unicode="d" horiz-adv-x="258" 
d="M126 300q1 5 -1 6.5t-10 1.5q-19 0 -32.5 -13t-14.5 -32v-7q0 -21 8 -36t18 -15q6 0 11 6q11 11 17 62q2 17 4 27zM127 385q-3 36 -3 37q0 21 9 21q6 0 8.5 -12.5t3.5 -56.5q2 -48 8 -75q17 -79 32 -99q4 -7 11 2q7 8 7 2q-1 -4 -6 -11q-4 -7 -11 -7q-18 0 -41 80l-6 20
l-5 -28q-12 -69 -43 -69q-12 0 -26 23.5t-14 43.5q0 25 18 44.5t40 19.5q5 0 8 -1q7 -1 8 0.5t3 13.5q0 1 0.5 7t0.5 10q0 11 -2 35z" />
    <glyph glyph-name="e" unicode="e" horiz-adv-x="241" 
d="M89 318q10 6 20 6q21 0 21 -21q0 -1 -0.5 -3t-0.5 -3q-3 -18 -15 -35t-20 -17q-3 0 -5 5q-2 6 6 12q19 15 19 38q0 8 -8 8q-17 0 -32 -22q-7 -12 -7 -27q0 -10 4 -18t13 -17q16 -19 39 -19t48 20q11 9 14 9v-1q0 -4 -14 -16q-29 -26 -51 -26q-26 0 -47.5 22t-21.5 49
q0 35 38 56z" />
    <glyph glyph-name="f" unicode="f" horiz-adv-x="220" 
d="M67 377q9 9 22 9q27 0 48.5 -14.5t21.5 -31.5v-12l-4 10q-14 31 -61 31q-12 0 -15 -1.5t-7 -8.5q-5 -10 -5 -32q0 -41 13 -99l4 -17h19q19 0 39 5q25 5 24 -3l-1 -4q-3 -8 -51 -13q-21 -2 -22 -6q-1 -2 -1 -4t7 -32q9 -32 11 -32q1 0 1 4q1 4 3 4q3 -2 3 -21
q0 -23 -8 -23l-4 2q-8 5 -28 91.5t-24 132.5q-1 6 -1 17q0 32 16 48z" />
    <glyph glyph-name="g" unicode="g" horiz-adv-x="318" 
d="M152 86v12q0 27 -2 29h-1q-5 0 -34.5 -28t-38.5 -42q-10 -13 -10 -25q0 -10 7 -20q10 -17 27 -17q26 0 43 37q8 18 9 54zM130 259q1 8 1 18q0 8 -3.5 9.5t-17.5 3.5q-16 1 -26 -5q-20 -12 -20 -41q0 -35 26 -38q9 -1 24 14q11 11 13 16.5t3 22.5zM81 300q10 4 21 4
q18 0 27 -7q6 -6 11 -6q12 0 12 -20q0 -2 -0.5 -7t-0.5 -8v-10q0 -21 3.5 -50.5t6.5 -29.5t49 46q47 47 52 47q2 0 2 -3q0 -9 -59 -68l-40 -40l3 -38v-17q0 -67 -33 -98q-16 -16 -34 -16q-21 0 -37 22q-11 14 -11 30q0 13 6 26q6 14 46 52l42 41l-12 69l-12 -11
q-21 -19 -33 -19q-10 0 -20 9q-20 16 -20 45q0 42 31 57z" />
    <glyph glyph-name="h" unicode="h" horiz-adv-x="285" 
d="M56 408q0 5 2 5q5 0 13 -17q12 -30 28 -81l20 -62l5 13q9 25 30 25q34 0 55 -46q8 -16 8 -23q0 -4 5.5 -3t7 1t-4.5 -10q-6 -9 -10 -9q-6 0 -14 22q-13 39 -34 49q-7 4 -13 4q-19 0 -19 -33q0 -13 3 -26q1 -6 1 -14q0 -12 -5 -12q-8 0 -18 26q-10 24 -35 102.5t-25 88.5z
" />
    <glyph glyph-name="i" unicode="i" horiz-adv-x="161" 
d="M80 328q2 5 5 6t5 -3q1 -2 5 -31t11 -63q5 -30 5 -33q0 -5 -2 -7t-4 -2q-7 0 -16 47q-10 57 -10 77q0 7 1 9zM63 414q11 14 19 4q3 -4 7 -4t5 -8v-3l1 -2q0 -7 -5.5 -12t-13.5 -5q-7 0 -12 4q-13 9 -1 26z" />
    <glyph glyph-name="j" unicode="j" horiz-adv-x="207" 
d="M92 328q0 7 3 7q6 0 19 -31q39 -94 39 -142q0 -42 -31 -58q-13 -7 -24 -7q-16 0 -28 14q-11 13 -11 26q0 6 4 6q3 0 3 -9q0 -22 30 -22q16 0 26 10q16 15 16 42q0 35 -31 119q-15 39 -15 45zM56 412q0 5 11 3q14 -3 16 -5l-4 -3h-7q-16 0 -16 5z" />
    <glyph glyph-name="k" unicode="k" horiz-adv-x="243" 
d="M59 398q4 -2 13 -33.5t17 -62.5t10 -31t4 12q2 13 9 24q6 10 15 9q11 -2 11 -12q0 -12 -15 -30q-12 -15 -11 -24l1 -11l38 1q5 0 14 0.5t11 0.5l11 -1q0 -3 -23.5 -9t-34.5 -6h-14v-17q0 -16 -7 -16q-6 0 -12.5 20.5t-23.5 96.5q-17 73 -17 85q0 3 0.5 4t3.5 0z" />
    <glyph glyph-name="l" unicode="l" horiz-adv-x="171" 
d="M58 448q5 10 8 4q1 -3 0 -10v-5q0 -24 20 -111q12 -54 15 -90q4 -37 8 -37q1 0 3 1q5 2 4 0l-5 -7q-7 -9 -12 -9q-9 0 -12 43q-1 23 -16 96q-16 74 -16 107q0 14 3 18z" />
    <glyph glyph-name="m" unicode="m" horiz-adv-x="324" 
d="M80 241q2 0 4 10t4 21t3 13q5 12 13 12q18 0 38 -42l10 -22l7 13q23 44 48 44q12 0 26.5 -23.5t14.5 -42.5q0 -10 3 -11.5t10 3.5q8 5 9 4q2 -2 -10 -11q-19 -14 -23 4q-14 61 -32 61q-15 0 -38 -44q-12 -22 -17 -22q-7 0 -17 28q-17 43 -26 43q-2 0 -3 -1q-4 -4 -9 -43
q-6 -46 -14 -46q-3 0 -5 2q-5 3 -7 18q0 4 -2 11t-4.5 17.5t-4.5 16.5q-8 32 -8 35t2 3q1 0 5 -4q7 -6 13 -26q7 -21 10 -21z" />
    <glyph glyph-name="n" unicode="n" horiz-adv-x="245" 
d="M91 304q9 10 18 10q27 0 46 -65q7 -28 10 -29q1 -1 7 1t12 4.5t6 1.5q0 -2 -11.5 -10.5t-15.5 -8.5q-12 0 -25 43q-10 32 -19 41t-15 5q-9 -8 -20 -63q-8 -43 -17 -43q-8 0 -15 44q-2 20 -2 25q0 20 6 20q3 0 5 -12q5 -26 6 -26q2 0 8 23q9 31 16 39z" />
    <glyph glyph-name="o" unicode="o" horiz-adv-x="198" 
d="M109 291q-12 7 -13 7t-14 -15q-18 -23 -18 -45q0 -29 25 -29q12 0 24 13q18 18 18 37t-22 32zM70 291q9 12 13 14.5t15 2.5q20 0 33.5 -15t13.5 -35q0 -14 -5 -23q-9 -17 -24 -29.5t-28 -12.5q-17 0 -27.5 12.5t-10.5 33.5q0 25 20 52z" />
    <glyph glyph-name="p" unicode="p" horiz-adv-x="179" 
d="M88 288q-10 9 -15 9q-8 0 -8 -35q1 -49 12 -50h1q7 0 21 12.5t14 20.5q0 23 -25 43zM56 301q5 8 16 8q18 0 36 -20t18 -43q0 -12 -5 -21q-12 -21 -37 -26q-9 -2 -9 -6q0 -6 7 -41q5 -30 5 -34q0 -5 -2 -7t-4 -2q-7 0 -20 59q-11 57 -11 94q0 30 6 39z" />
    <glyph glyph-name="q" unicode="q" horiz-adv-x="228" 
d="M68 280q10 7 24 7q7 0 7 -3q0 -2 -10 -5q-22 -6 -25 -37v-5q0 -12 4 -24t8 -12q14 0 25 56q4 18 10 18q3 0 4 -1t2 -7.5t1.5 -17l1.5 -31.5q6 -130 12 -130q1 0 9.5 21t16.5 43l9 23q4 9 4 -1q0 -4 -1 -11q-7 -53 -24 -88q-6 -14 -16 -14q-8 0 -11 9q-4 14 -7.5 47.5
t-5 60t-2.5 26.5q-2 0 -12 -10q-9 -9 -16 -9q-12 0 -19 17t-7 34q0 30 18 44z" />
    <glyph glyph-name="r" unicode="r" horiz-adv-x="186" 
d="M75 319q7 3 14 3q25 0 38 -27q5 -10 5 -15q0 -2 -1 -2q-4 0 -17 13q-15 15 -26 15q-6 0 -10 -4t-4 -20q0 -4 4 -48q2 -13 2 -26q0 -9 -4 -13t-7 -4q-17 0 -19 64q0 31 8 45q10 15 17 19z" />
    <glyph glyph-name="s" unicode="s" horiz-adv-x="214" 
d="M108 313q9 3 16 3t7 -4t-14 -10q-13 -5 -26 -15t-13 -14q0 -5 15 -7q28 -5 47.5 -17t19.5 -23q0 -14 -15.5 -23t-39.5 -9h-3q-22 0 -36.5 7t-14.5 17q0 6 13 0q18 -9 43 -9q12 0 21 3q16 7 16 13t-17 13t-37 13t-25 11q-6 5 -6.5 7.5t2.5 9.5q4 8 19.5 19t27.5 15z" />
    <glyph glyph-name="t" unicode="t" horiz-adv-x="217" 
d="M87 264q0 -21 8 -39t23 -18q10 0 22.5 7.5t16.5 15.5l4 9l1 -9q2 -14 -13 -26.5t-34 -12.5q-35 0 -43 67q-1 13 -3 16t-7 1q-8 -2 -8 3.5t8 8.5q6 2 7.5 6.5t1.5 23.5q0 28 2 30q1 2 4 2q7 0 7 -37v-22h16q16 0 16 -3q0 -4 -14 -7q-11 -3 -13 -5t-2 -11z" />
    <glyph glyph-name="u" unicode="u" horiz-adv-x="221" 
d="M133 300q3 3 4 3q7 0 19 -49q12 -48 12 -62q0 -7 -3 -7q-7 0 -18 43q-8 28 -9 28q-2 0 -9 -16q-9 -21 -22 -34t-25 -13q-6 0 -9 2q-6 3 -14 19q-9 21 -9 57q0 29 6 29q2 0 3 -1t5 -30q5 -52 16 -59q1 -1 4 -1q10 0 23 21t19 47q4 20 7 23z" />
    <glyph glyph-name="v" unicode="v" horiz-adv-x="209" 
d="M147 326q5 8 9 -4q2 -4 2 -10v-8q0 -42 -11 -84q-9 -30 -27 -30q-10 0 -19 11q-11 12 -29 55.5t-18 55.5l1 3q0 1 1 1q7 0 27 -48q24 -61 37 -61q3 0 5 2q10 10 17 79q4 37 5 38z" />
    <glyph glyph-name="w" unicode="w" horiz-adv-x="272" 
d="M208 315q7 7 12 -10q1 -3 1 -12q0 -49 -12 -77q-5 -10 -7 -12.5t-9 -2.5q-16 0 -35 39q-9 17 -10 17q-2 0 -7 -26q-5 -23 -12 -35q-14 -16 -26 -2q-9 11 -29 56t-20 55q0 5 5 5q4 0 18 -32q28 -66 36 -72h1q4 0 8.5 14t8.5 37l4 23q1 7 9 6q7 -1 23 -30q19 -37 26 -37
q2 0 3 2q3 5 6.5 30t3.5 42q0 20 2 22z" />
    <glyph glyph-name="x" unicode="x" horiz-adv-x="211" 
d="M58 325q5 0 26 -25l20 -23l6 9q9 12 19.5 22.5t13.5 10.5h1q1 0 1 -2q0 -3 -3.5 -9t-9 -14t-6.5 -10l-11 -18l22 -22q21 -21 21 -26q0 -4 -4 -4q-7 0 -26 17q-15 13 -18 13q-4 0 -12 -21q-11 -29 -17 -29t-6 7q0 8 10 31.5t10 29.5q0 2 -1 3q-3 3 -21.5 28.5t-18.5 29.5
q0 2 4 2z" />
    <glyph glyph-name="y" unicode="y" horiz-adv-x="309" 
d="M145 113q1 29 -2 29q-6 0 -33 -26.5t-34 -39.5q-4 -7 -4 -15q0 -11 7 -17.5t17 -6.5t20 7q26 17 29 69zM127 287q4 5 7.5 2.5t4.5 -10.5q2 -16 9 -57t8 -41q3 0 49 35t47 35q3 0 3 -2q0 -10 -57 -58l-40 -34l2 -20q1 -7 1 -20q0 -34 -14 -59.5t-39 -33.5q-12 -4 -26 1
q-25 10 -25 32q0 11 6 25q11 25 65 71l14 11l-5 29q-5 29 -8 29q-2 0 -7 -9q-13 -24 -34 -24q-11 0 -19 7q-19 16 -19 59q0 15 4 24q3 8 5 8q5 0 6 -30q1 -41 19 -53q2 -1 5 -1q11 0 21.5 19t11.5 41q2 21 5 24z" />
    <glyph glyph-name="z" unicode="z" horiz-adv-x="243" 
d="M64 304q14 3 34 3q25 0 35 -4q16 -9 6 -26q-2 -4 -35.5 -30t-33.5 -33q0 -1 1 -2q5 -5 32 -5q41 0 67 9q19 6 18 1q0 -2 -7 -8q-14 -13 -58 -17q-3 0 -9 -0.5t-8 -0.5q-52 0 -52 23q0 16 40 44q31 21 31 30q0 2 -29 4q-9 0 -22.5 0.5t-14.5 0.5q-7 0 -8 3t6 6z" />
    <glyph glyph-name="braceleft" unicode="{" horiz-adv-x="225" 
d="M95 372q8 4 17 4q13 0 13 -8q0 -5 -14 -7q-14 -3 -18 -10q-9 -14 3 -14q5 0 10 -6.5t5 -12.5q0 -7 -9 -18q-9 -10 -4 -13q1 -1 2 -1q8 -5 8 -16q0 -9 -7 -23q-14 -27 -14 -29t5 -7q8 -5 19 -5q13 0 22 1t21 1q14 0 15 -3q1 -1 1 -3q0 -4 -31 -9q-20 -2 -26 -2
q-41 0 -41 25q0 12 12 32t10 22t-19 -2q-23 -6 -23 4q0 4 22 24q19 19 19 21q0 3 -3 4q-18 11 -18 21q0 5 8 16t15 14z" />
    <glyph glyph-name="bar" unicode="|" horiz-adv-x="139" 
d="M53 490q6 6 10 -6q1 -4 1 -9t10 -101q15 -144 15 -163t-7 -19q-6 0 -10 43q-1 24 -11 117q-10 100 -10 123q0 13 2 15z" />
    <glyph glyph-name="braceright" unicode="}" horiz-adv-x="184" 
d="M55 402q1 4 15 4q19 0 27 -6q5 -4 5 -11q0 -8 -13 -27q-12 -17 -12 -23t11 -8q23 -5 28.5 -7.5t5.5 -7.5q0 -7 -16 -18q-16 -13 -22 -24q-3 -6 -3 -10q0 -8 25 -16q17 -5 21.5 -9t4.5 -13q0 -11 -12 -22q-18 -16 -37 -16q-14 0 -26 10q-11 10 -6 12q2 0 5 -1q9 -3 23 -3
q33 0 36 17q1 5 -2 7t-14 5q-33 9 -33 29q0 16 19 36l12 12l-12 4q-25 8 -25 22q0 10 13 29t13 21q0 4 -14 4q-19 0 -18 7q0 1 1 3z" />
    <glyph glyph-name="asciitilde" unicode="~" horiz-adv-x="228" 
d="M159 316q6 17 12 17q12 0 1 -26q-12 -26 -25 -26t-35 18q-11 10 -19 10q-9 0 -21 -17q-17 -21 -20 -10q0 5 8.5 18t16.5 19q8 7 17 7q12 0 27 -14q17 -14 24 -14q8 0 14 18z" />
    <glyph glyph-name="nbsp" unicode="&#xa0;" horiz-adv-x="250" 
 />
  </font>
</defs>
</svg>
